<svg width="165" height="95" viewBox="0 0 165 95" fill="none" xmlns="http://www.w3.org/2000/svg">
<path d="M26.3779 22.398C26.2759 22.262 25.9189 22.007 25.3069 21.633C24.6949 21.259 23.9299 20.868 23.0119 20.46C22.0939 20.018 21.0909 19.661 20.0029 19.389C18.9149 19.083 17.8269 18.93 16.7389 18.93C13.7469 18.93 12.2509 19.933 12.2509 21.939C12.2509 23.163 12.8969 24.03 14.1889 24.54C15.5149 25.05 17.4019 25.662 19.8499 26.376C22.1619 27.022 24.1509 27.77 25.8169 28.62C27.5169 29.436 28.8259 30.541 29.7439 31.935C30.6619 33.295 31.1209 35.097 31.1209 37.341C31.1209 39.381 30.7469 41.115 29.9989 42.543C29.2509 43.937 28.2309 45.076 26.9389 45.96C25.6469 46.81 24.1849 47.439 22.5529 47.847C20.9549 48.221 19.2889 48.408 17.5549 48.408C14.8689 48.408 12.1489 48.017 9.39493 47.235C6.64093 46.419 4.20993 45.314 2.10193 43.92L5.77393 36.627C5.90993 36.797 6.35193 37.12 7.09993 37.596C7.84793 38.038 8.78293 38.514 9.90493 39.024C11.0269 39.534 12.2509 39.976 13.5769 40.35C14.9369 40.69 16.3139 40.86 17.7079 40.86C20.6659 40.86 22.1449 39.959 22.1449 38.157C22.1449 37.239 21.7539 36.525 20.9719 36.015C20.2239 35.471 19.1869 35.012 17.8609 34.638C16.5349 34.23 15.0389 33.771 13.3729 33.261C10.0409 32.241 7.57593 31 5.97793 29.538C4.41393 28.076 3.63193 25.985 3.63193 23.265C3.63193 20.715 4.22693 18.573 5.41693 16.839C6.64093 15.071 8.27293 13.745 10.3129 12.861C12.3529 11.943 14.5799 11.484 16.9939 11.484C19.5439 11.484 21.9579 11.926 24.2359 12.81C26.5139 13.66 28.4519 14.544 30.0499 15.462L26.3779 22.398ZM63.1099 11.79V48H54.7459V33.159H40.3129V48H31.9489V11.79H40.3129V25.815H54.7459V11.79H63.1099ZM81.8305 48.306C79.1445 48.306 76.6965 47.796 74.4865 46.776C72.3105 45.722 70.4235 44.328 68.8255 42.594C67.2275 40.826 66.0035 38.854 65.1535 36.678C64.3035 34.468 63.8785 32.19 63.8785 29.844C63.8785 27.464 64.3205 25.186 65.2045 23.01C66.1225 20.8 67.3805 18.845 68.9785 17.145C70.6105 15.411 72.5315 14.051 74.7415 13.065C76.9515 12.079 79.3655 11.586 81.9835 11.586C84.6695 11.586 87.1005 12.113 89.2765 13.167C91.4865 14.187 93.3735 15.581 94.9375 17.349C96.5355 19.117 97.7595 21.106 98.6095 23.316C99.4595 25.492 99.8845 27.719 99.8845 29.997C99.8845 32.377 99.4255 34.672 98.5075 36.882C97.6235 39.058 96.3655 41.013 94.7335 42.747C93.1355 44.447 91.2315 45.807 89.0215 46.827C86.8455 47.813 84.4485 48.306 81.8305 48.306ZM72.3955 29.946C72.3955 31.816 72.7525 33.584 73.4665 35.25C74.1805 36.882 75.2515 38.225 76.6795 39.279C78.1075 40.333 79.8415 40.86 81.8815 40.86C83.9895 40.86 85.7405 40.316 87.1345 39.228C88.5625 38.14 89.6165 36.763 90.2965 35.097C91.0105 33.397 91.3675 31.646 91.3675 29.844C91.3675 27.974 90.9935 26.223 90.2455 24.591C89.5315 22.925 88.4605 21.582 87.0325 20.562C85.6385 19.542 83.9215 19.032 81.8815 19.032C79.7735 19.032 78.0055 19.576 76.5775 20.664C75.1835 21.718 74.1295 23.078 73.4155 24.744C72.7355 26.41 72.3955 28.144 72.3955 29.946ZM98.5465 29.589C98.5465 27.413 98.9545 25.254 99.7705 23.112C100.587 20.97 101.777 19.032 103.341 17.298C104.905 15.564 106.809 14.187 109.053 13.167C111.297 12.113 113.847 11.586 116.703 11.586C120.069 11.586 123.01 12.317 125.526 13.779C128.042 15.241 129.912 17.145 131.136 19.491L124.71 23.979C124.166 22.721 123.435 21.735 122.517 21.021C121.599 20.273 120.613 19.763 119.559 19.491C118.505 19.185 117.485 19.032 116.499 19.032C114.357 19.032 112.589 19.576 111.195 20.664C109.801 21.752 108.764 23.129 108.084 24.795C107.404 26.461 107.064 28.161 107.064 29.895C107.064 31.799 107.455 33.601 108.237 35.301C109.019 36.967 110.124 38.31 111.552 39.33C112.98 40.35 114.663 40.86 116.601 40.86C117.621 40.86 118.658 40.707 119.712 40.401C120.766 40.061 121.735 39.517 122.619 38.769C123.537 38.021 124.234 37.052 124.71 35.862L131.544 39.891C130.83 41.693 129.657 43.223 128.025 44.481C126.393 45.705 124.54 46.657 122.466 47.337C120.426 47.983 118.403 48.306 116.397 48.306C113.779 48.306 111.382 47.779 109.206 46.725C107.03 45.637 105.143 44.209 103.545 42.441C101.947 40.639 100.706 38.633 99.8215 36.423C98.9715 34.179 98.5465 31.901 98.5465 29.589ZM131.67 48V11.79H140.034V27.396L153.294 11.79H162.678L149.112 27.957L163.596 48H154.008L143.808 33.465L140.034 37.341V48H131.67Z" fill="#392D40"/>
<path d="M24.5786 55.584C22.3386 53.12 19.2186 51.888 15.2186 51.888C11.8906 51.888 9.45863 52.528 7.92263 53.808C6.41863 55.056 5.66663 56.752 5.66663 58.896C5.66663 60.336 6.01863 61.488 6.72263 62.352C7.42663 63.184 8.49863 63.856 9.93863 64.368C11.4106 64.88 13.3146 65.376 15.6506 65.856C18.1146 66.368 20.2426 66.976 22.0346 67.68C23.8266 68.352 25.2026 69.28 26.1626 70.464C27.1546 71.648 27.6506 73.248 27.6506 75.264C27.6506 78.272 26.5306 80.528 24.2906 82.032C22.0506 83.536 19.1066 84.288 15.4586 84.288C10.1786 84.288 5.68263 82.592 1.97063 79.2L3.26663 77.232C4.67463 78.704 6.41863 79.888 8.49863 80.784C10.6106 81.68 12.9626 82.128 15.5546 82.128C18.4986 82.128 20.8186 81.584 22.5146 80.496C24.2106 79.376 25.0586 77.728 25.0586 75.552C25.0586 74.048 24.6586 72.832 23.8586 71.904C23.0906 70.976 21.9066 70.224 20.3066 69.648C18.7386 69.04 16.7546 68.48 14.3546 67.968C11.9546 67.456 9.92263 66.88 8.25863 66.24C6.59463 65.6 5.33063 64.736 4.46663 63.648C3.60263 62.56 3.17063 61.088 3.17063 59.232C3.17063 57.184 3.66663 55.456 4.65863 54.048C5.68263 52.608 7.09063 51.52 8.88263 50.784C10.7066 50.048 12.8186 49.68 15.2186 49.68C17.4266 49.68 19.3946 50.016 21.1226 50.688C22.8506 51.328 24.4186 52.32 25.8266 53.664L24.5786 55.584ZM30.4571 84V49.92H44.4731C46.3931 49.92 48.0891 50.448 49.5611 51.504C51.0651 52.528 52.2491 53.856 53.1131 55.488C53.9771 57.088 54.4091 58.752 54.4091 60.48C54.4091 62.304 53.9931 64.032 53.1611 65.664C52.3611 67.264 51.2411 68.576 49.8011 69.6C48.3611 70.624 46.6811 71.136 44.7611 71.136H32.9051V84H30.4571ZM32.9051 68.88H44.6651C46.1691 68.88 47.4491 68.48 48.5051 67.68C49.5931 66.88 50.4251 65.84 51.0011 64.56C51.6091 63.28 51.9131 61.92 51.9131 60.48C51.9131 59.008 51.5611 57.632 50.8571 56.352C50.1851 55.072 49.2731 54.048 48.1211 53.28C47.0011 52.512 45.7531 52.128 44.3771 52.128H32.9051V68.88ZM79.6136 81.792V84H56.9096V49.92H79.1816V52.128H59.3576V65.52H76.6856V67.632H59.3576V81.792H79.6136ZM93.6443 49.92H95.7563L110.156 84H107.564L102.812 72.768H86.5403L81.7882 84H79.1482L93.6443 49.92ZM102.14 70.752L94.7003 52.896L87.1163 70.752H102.14ZM111.971 84V49.92H126.131C128.051 49.92 129.763 50.448 131.267 51.504C132.771 52.528 133.939 53.856 134.771 55.488C135.635 57.088 136.067 58.752 136.067 60.48C136.067 62.176 135.731 63.76 135.059 65.232C134.387 66.704 133.443 67.936 132.227 68.928C131.043 69.92 129.651 70.528 128.051 70.752L136.547 84H133.715L125.459 71.136H114.419V84H111.971ZM114.419 68.88H126.371C127.843 68.88 129.123 68.48 130.211 67.68C131.299 66.88 132.131 65.84 132.707 64.56C133.315 63.28 133.619 61.92 133.619 60.48C133.619 59.008 133.267 57.648 132.563 56.4C131.891 55.12 130.979 54.096 129.827 53.328C128.675 52.528 127.411 52.128 126.035 52.128H114.419V68.88ZM162.487 81.792V84H139.783V49.92H162.055V52.128H142.231V65.52H159.559V67.632H142.231V81.792H162.487Z" fill="#392D40"/>
</svg>
