<svg width="497" height="53" viewBox="0 0 497 53" fill="none" xmlns="http://www.w3.org/2000/svg">
<path d="M34.568 15.856C34.424 15.664 33.92 15.304 33.056 14.776C32.192 14.248 31.112 13.696 29.816 13.12C28.52 12.496 27.104 11.992 25.568 11.608C24.032 11.176 22.496 10.96 20.96 10.96C16.736 10.96 14.624 12.376 14.624 15.208C14.624 16.936 15.536 18.16 17.36 18.88C19.232 19.6 21.896 20.464 25.352 21.472C28.616 22.384 31.424 23.44 33.776 24.64C36.176 25.792 38.024 27.352 39.32 29.32C40.616 31.24 41.264 33.784 41.264 36.952C41.264 39.832 40.736 42.28 39.68 44.296C38.624 46.264 37.184 47.872 35.36 49.12C33.536 50.32 31.472 51.208 29.168 51.784C26.912 52.312 24.56 52.576 22.112 52.576C18.32 52.576 14.48 52.024 10.592 50.92C6.704 49.768 3.272 48.208 0.296 46.24L5.48 35.944C5.672 36.184 6.296 36.64 7.352 37.312C8.408 37.936 9.728 38.608 11.312 39.328C12.896 40.048 14.624 40.672 16.496 41.2C18.416 41.68 20.36 41.92 22.328 41.92C26.504 41.92 28.592 40.648 28.592 38.104C28.592 36.808 28.04 35.8 26.936 35.08C25.88 34.312 24.416 33.664 22.544 33.136C20.672 32.56 18.56 31.912 16.208 31.192C11.504 29.752 8.024 28 5.768 25.936C3.56 23.872 2.456 20.92 2.456 17.08C2.456 13.48 3.296 10.456 4.976 8.008C6.704 5.512 9.008 3.64 11.888 2.392C14.768 1.096 17.912 0.447999 21.32 0.447999C24.92 0.447999 28.328 1.072 31.544 2.32C34.76 3.52 37.496 4.768 39.752 6.064L34.568 15.856ZM86.4249 0.879997V52H74.6169V31.048H54.2409V52H42.4329V0.879997H54.2409V20.68H74.6169V0.879997H86.4249ZM112.854 52.432C109.062 52.432 105.606 51.712 102.486 50.272C99.4139 48.784 96.7499 46.816 94.4939 44.368C92.2379 41.872 90.5099 39.088 89.3099 36.016C88.1099 32.896 87.5099 29.68 87.5099 26.368C87.5099 23.008 88.1339 19.792 89.3819 16.72C90.6779 13.6 92.4539 10.84 94.7099 8.44C97.0139 5.992 99.7259 4.072 102.846 2.68C105.966 1.288 109.374 0.591997 113.07 0.591997C116.862 0.591997 120.294 1.336 123.366 2.824C126.486 4.264 129.15 6.232 131.358 8.728C133.614 11.224 135.342 14.032 136.542 17.152C137.742 20.224 138.342 23.368 138.342 26.584C138.342 29.944 137.694 33.184 136.398 36.304C135.15 39.376 133.374 42.136 131.07 44.584C128.814 46.984 126.126 48.904 123.006 50.344C119.934 51.736 116.55 52.432 112.854 52.432ZM99.5339 26.512C99.5339 29.152 100.038 31.648 101.046 34C102.054 36.304 103.566 38.2 105.582 39.688C107.598 41.176 110.046 41.92 112.926 41.92C115.902 41.92 118.374 41.152 120.342 39.616C122.358 38.08 123.846 36.136 124.806 33.784C125.814 31.384 126.318 28.912 126.318 26.368C126.318 23.728 125.79 21.256 124.734 18.952C123.726 16.6 122.214 14.704 120.198 13.264C118.23 11.824 115.806 11.104 112.926 11.104C109.95 11.104 107.454 11.872 105.438 13.408C103.47 14.896 101.982 16.816 100.974 19.168C100.014 21.52 99.5339 23.968 99.5339 26.512ZM136.453 26.008C136.453 22.936 137.029 19.888 138.181 16.864C139.333 13.84 141.013 11.104 143.221 8.656C145.429 6.208 148.117 4.264 151.285 2.824C154.453 1.336 158.053 0.591997 162.085 0.591997C166.837 0.591997 170.989 1.624 174.541 3.688C178.093 5.752 180.733 8.44 182.461 11.752L173.389 18.088C172.621 16.312 171.589 14.92 170.293 13.912C168.997 12.856 167.605 12.136 166.117 11.752C164.629 11.32 163.189 11.104 161.797 11.104C158.773 11.104 156.277 11.872 154.309 13.408C152.341 14.944 150.877 16.888 149.917 19.24C148.957 21.592 148.477 23.992 148.477 26.44C148.477 29.128 149.029 31.672 150.133 34.072C151.237 36.424 152.797 38.32 154.813 39.76C156.829 41.2 159.205 41.92 161.941 41.92C163.381 41.92 164.845 41.704 166.333 41.272C167.821 40.792 169.189 40.024 170.437 38.968C171.733 37.912 172.717 36.544 173.389 34.864L183.037 40.552C182.029 43.096 180.373 45.256 178.069 47.032C175.765 48.76 173.149 50.104 170.221 51.064C167.341 51.976 164.485 52.432 161.653 52.432C157.957 52.432 154.573 51.688 151.501 50.2C148.429 48.664 145.765 46.648 143.509 44.152C141.253 41.608 139.501 38.776 138.253 35.656C137.053 32.488 136.453 29.272 136.453 26.008ZM183.215 52V0.879997H195.023V22.912L213.743 0.879997H226.991L207.839 23.704L228.287 52H214.751L200.351 31.48L195.023 36.952V52H183.215ZM258.003 8.44C256.131 6.424 254.067 4.984 251.811 4.12C249.555 3.256 246.915 2.824 243.891 2.824C238.467 2.824 234.531 3.856 232.083 5.92C229.635 7.984 228.411 10.744 228.411 14.2C228.411 16.552 228.939 18.4 229.995 19.744C231.099 21.04 232.779 22.096 235.035 22.912C237.339 23.728 240.315 24.52 243.963 25.288C247.707 26.056 250.947 26.944 253.683 27.952C256.419 28.96 258.531 30.352 260.019 32.128C261.507 33.856 262.251 36.208 262.251 39.184C262.251 43.504 260.595 46.792 257.283 49.048C254.019 51.256 249.651 52.36 244.179 52.36C240.099 52.36 236.427 51.736 233.163 50.488C229.899 49.192 226.875 47.224 224.091 44.584L225.603 42.712C227.955 45.208 230.667 47.08 233.739 48.328C236.859 49.576 240.363 50.2 244.251 50.2C249.003 50.2 252.771 49.312 255.555 47.536C258.339 45.76 259.731 43.096 259.731 39.544C259.731 37.096 259.131 35.152 257.931 33.712C256.731 32.224 254.907 31.024 252.459 30.112C250.011 29.152 246.891 28.288 243.099 27.52C239.403 26.752 236.259 25.912 233.667 25C231.123 24.088 229.179 22.816 227.835 21.184C226.539 19.552 225.891 17.344 225.891 14.56C225.891 10.048 227.523 6.592 230.787 4.192C234.051 1.744 238.395 0.519998 243.819 0.519998C247.083 0.519998 249.963 0.999997 252.459 1.96C255.003 2.92 257.307 4.456 259.371 6.568L258.003 8.44ZM265.961 52V0.879997H286.913C289.697 0.879997 292.193 1.648 294.401 3.184C296.609 4.72 298.337 6.688 299.585 9.088C300.881 11.488 301.529 13.96 301.529 16.504C301.529 19.24 300.929 21.808 299.729 24.208C298.529 26.56 296.873 28.504 294.761 30.04C292.649 31.528 290.177 32.272 287.345 32.272H268.481V52H265.961ZM268.481 29.968H287.273C289.721 29.968 291.809 29.32 293.537 28.024C295.313 26.68 296.657 25 297.569 22.984C298.529 20.92 299.009 18.76 299.009 16.504C299.009 14.2 298.457 12.04 297.353 10.024C296.249 7.96 294.761 6.304 292.889 5.056C291.065 3.808 289.049 3.184 286.841 3.184H268.481V29.968ZM338.618 49.696V52H304.85V0.879997H337.97V3.184H307.37V24.712H334.154V27.016H307.37V49.696H338.618ZM359.659 0.879997H361.819L383.779 52H381.115L373.555 34.36H347.923L340.363 52H337.627L359.659 0.879997ZM372.763 32.2L360.739 4.048L348.643 32.2H372.763ZM386.213 52V0.879997H407.237C410.069 0.879997 412.589 1.648 414.797 3.184C417.005 4.72 418.733 6.688 419.981 9.088C421.229 11.488 421.853 13.96 421.853 16.504C421.853 19.096 421.325 21.52 420.269 23.776C419.213 26.032 417.749 27.904 415.877 29.392C414.005 30.88 411.821 31.744 409.325 31.984L422.141 52H419.261L406.589 32.272H388.733V52H386.213ZM388.733 29.968H407.669C410.069 29.968 412.133 29.32 413.861 28.024C415.637 26.728 417.005 25.048 417.965 22.984C418.925 20.92 419.405 18.76 419.405 16.504C419.405 14.2 418.853 12.04 417.749 10.024C416.645 8.008 415.157 6.376 413.285 5.128C411.461 3.832 409.421 3.184 407.165 3.184H388.733V29.968ZM460.627 49.696V52H426.859V0.879997H459.979V3.184H429.379V24.712H456.163V27.016H429.379V49.696H460.627ZM476.253 33.64V31.264H496.773V33.64H476.253Z" fill="#392D40"/>
</svg>
