<svg xmlns="http://www.w3.org/2000/svg" width="721" height="220" fill="none" viewBox="0 0 721 220">
  <g filter="url(#filter0_d_29:1695)">
    <path fill="#E68688" d="M50.091 207c-31.773 0-55.488-29.248-48.92-60.335L27.019 24.317C29.703 11.61 40.916 2.52 53.902 2.52c17.458 0 30.49 16.07 26.883 33.151L60.658 131.01c-2.94 13.928 7.685 27.03 21.92 27.03a22.401 22.401 0 0021.918-17.775l24.478-115.946c2.682-12.706 13.895-21.799 26.882-21.799 17.457 0 30.488 16.069 26.882 33.15l-20.128 95.34c-2.94 13.928 7.685 27.03 21.919 27.03 10.589 0 19.732-7.414 21.92-17.775l24.477-115.948c2.683-12.705 13.894-21.797 26.88-21.797 17.457 0 30.487 16.07 26.878 33.15l-27.816 131.665C251.983 190.456 231.579 207 207.948 207H50.091zM359.762 209.88c-18.048 0-32.736-3.648-44.064-10.944-11.328-7.488-19.296-17.184-23.904-29.088-4.608-11.904-5.952-24.768-4.032-38.592 1.92-14.016 6.816-26.976 14.688-38.88 8.064-11.904 18.72-21.504 31.968-28.8 13.44-7.296 29.184-10.944 47.232-10.944s32.736 3.648 44.064 10.944c11.328 7.296 19.296 16.896 23.904 28.8 4.608 11.904 5.952 24.864 4.032 38.88-1.92 13.824-6.912 26.688-14.976 38.592-7.872 11.904-18.528 21.6-31.968 29.088-13.248 7.296-28.896 10.944-46.944 10.944zm6.336-43.2c7.872 0 14.976-3.168 21.312-9.504 6.336-6.336 10.176-14.976 11.52-25.92 1.536-10.944-.096-19.584-4.896-25.92-4.608-6.336-10.848-9.504-18.72-9.504-7.68 0-14.688 3.168-21.024 9.504-6.336 6.336-10.272 14.976-11.808 25.92-1.344 10.944.288 19.584 4.896 25.92 4.8 6.336 11.04 9.504 18.72 9.504zM486.778 207c-16.941 0-29.577-15.61-26.049-32.18l20.919-98.245c2.615-12.282 13.463-21.063 26.021-21.063h5.359c14.174 0 24.742 13.067 21.777 26.928l-4.336 20.273c-.733 3.426 1.878 6.655 5.381 6.655a5.312 5.312 0 003.29-1.117c7.136-5.612 13.851-12.823 20.145-21.635 3.579-4.872 6.798-10 9.656-15.387 4.859-9.155 13.92-15.717 24.285-15.717 17.928 0 29.816 18.492 19.515 33.165a170.208 170.208 0 01-7.376 9.747 309.945 309.945 0 01-10.139 12.055c-10.778 12.149-14.751 29.439-8.161 44.282l6.765 15.234c7.728 17.406-5.013 37.005-24.058 37.005a26.323 26.323 0 01-24.371-16.375l-14.874-36.442a5.837 5.837 0 00-11.111.983l-6.596 30.781C510.189 198.227 499.337 207 486.778 207zM669.514 120.6c-17.009 0-29.705-15.655-26.193-32.298l14.045-66.555C659.979 9.365 670.905.504 683.56.504c17.009 0 29.705 15.656 26.193 32.298l-14.045 66.555c-2.613 12.382-13.539 21.243-26.194 21.243zm-18.74 86.4c-16.845 0-29.413-15.512-25.921-31.99 2.596-12.244 13.405-21.002 25.921-21.002h.55c16.845 0 29.413 15.512 25.92 31.99C674.649 198.242 663.84 207 651.324 207h-.55z"/>
  </g>
  <defs>
    <filter id="filter0_d_29:1695" width="720.268" height="219.376" x=".072" y=".504" color-interpolation-filters="sRGB" filterUnits="userSpaceOnUse">
      <feFlood flood-opacity="0" result="BackgroundImageFix"/>
      <feColorMatrix in="SourceAlpha" result="hardAlpha" values="0 0 0 0 0 0 0 0 0 0 0 0 0 0 0 0 0 0 127 0"/>
      <feOffset dx="10" dy="10"/>
      <feComposite in2="hardAlpha" operator="out"/>
      <feColorMatrix values="0 0 0 0 0.223529 0 0 0 0 0.176471 0 0 0 0 0.25098 0 0 0 1 0"/>
      <feBlend in2="BackgroundImageFix" result="effect1_dropShadow_29:1695"/>
      <feBlend in="SourceGraphic" in2="effect1_dropShadow_29:1695" result="shape"/>
    </filter>
  </defs>
</svg>
